<svg width="165" height="33" viewBox="0 0 165 33" fill="none" xmlns="http://www.w3.org/2000/svg">
<path d="M11.5279 0.00838646C12.1295 0.0125689 12.7309 0.0167592 13.3049 0.0167592H19.1454C19.7194 0.0167592 20.3207 0.0125689 20.9224 0.00838646C22.5422 -0.00288712 24.1643 -0.0141761 25.2623 0.0561305C29.2591 0.31209 32.0155 2.7338 32.3699 6.84872C32.454 8.32742 32.4519 10.1087 32.4496 12.2094C32.4491 12.57 32.4487 12.9405 32.4487 13.32V19.1605C32.4487 19.54 32.4491 19.91 32.4496 20.2705C32.4519 22.3715 32.454 24.153 32.3699 25.6318C32.0155 29.7468 29.2591 32.1685 25.2623 32.4244C24.1643 32.4948 22.5422 32.4835 20.9224 32.4722C20.3207 32.468 19.7194 32.4638 19.1454 32.4638H13.3049C12.7309 32.4638 12.1295 32.468 11.5279 32.4722C9.90814 32.4835 8.28597 32.4948 7.18801 32.4244C3.19119 32.1685 0.434771 29.7468 0.0803685 25.6318C-0.00365667 24.1531 -0.00162064 22.3718 0.000769294 20.2711C0.00118596 19.9106 0.00160263 19.54 0.00160263 19.1605V13.32C0.00160263 12.9405 0.00118596 12.5706 0.000769294 12.21C-0.00162064 10.1093 -0.00365667 8.32742 0.0803685 6.84872C0.434771 2.7338 3.19119 0.31209 7.18801 0.0561305C8.28597 -0.0141761 9.90814 -0.00288712 11.5279 0.00838646Z" fill="url(#paint0_linear_301_15)"/>
<g filter="url(#filter0_dddddd_301_15)">
<path d="M5.27686 11.5764C5.27686 10.75 5.94682 10.0801 6.77324 10.0801H17.2477C19.3354 10.0801 21.0279 11.7725 21.0279 13.8603V20.8302C21.0279 21.6566 20.358 22.3265 19.5316 22.3265H9.05712C6.96939 22.3265 5.27686 20.634 5.27686 18.5463V11.5764Z" fill="url(#paint1_linear_301_15)"/>
<path d="M6.77328 10.2568H17.2477C19.2376 10.2568 20.8507 11.87 20.8507 13.8599V20.8297C20.8507 21.5583 20.2602 22.1488 19.5316 22.1488H9.05717C7.06723 22.1488 5.4541 20.5357 5.4541 18.5458V11.5759C5.4541 10.8474 6.04475 10.2568 6.77328 10.2568Z" stroke="url(#paint2_linear_301_15)" stroke-width="0.354398"/>
</g>
<g filter="url(#filter1_dddddd_301_15)">
<path d="M21.9727 14.4159C21.9727 13.9065 22.1918 13.4218 22.5742 13.0854L25.5752 10.4454C26.2112 9.88601 27.2098 10.3376 27.2098 11.1846V21.252C27.2098 22.0911 26.2275 22.5455 25.5881 22.0023L22.8333 19.6618C22.2874 19.198 21.9727 18.5177 21.9727 17.8013V14.4159Z" fill="url(#paint3_linear_301_15)"/>
<path d="M22.6913 13.2177L25.6923 10.5778C26.2138 10.1189 27.0327 10.4892 27.0327 11.1838V21.2513C27.0327 21.9393 26.2271 22.312 25.7028 21.8664L22.9481 19.5259C22.4417 19.0958 22.1499 18.4649 22.1499 17.8005V14.4151C22.1499 13.9567 22.3472 13.5204 22.6913 13.2177Z" stroke="url(#paint4_linear_301_15)" stroke-width="0.354398"/>
</g>
<path d="M46.9858 12.5653C46.9176 11.8778 46.625 11.3437 46.108 10.9631C45.5909 10.5824 44.8892 10.392 44.0028 10.392C43.4006 10.392 42.892 10.4773 42.4773 10.6477C42.0625 10.8125 41.7443 11.0426 41.5227 11.3381C41.3068 11.6335 41.1989 11.9688 41.1989 12.3438C41.1875 12.6562 41.2528 12.929 41.3949 13.1619C41.5426 13.3949 41.7443 13.5966 42 13.767C42.2557 13.9318 42.5511 14.0767 42.8864 14.2017C43.2216 14.321 43.5795 14.4233 43.9602 14.5085L45.5284 14.8835C46.2898 15.054 46.9886 15.2812 47.625 15.5653C48.2614 15.8494 48.8125 16.1989 49.2784 16.6136C49.7443 17.0284 50.1051 17.517 50.3608 18.0795C50.6222 18.642 50.7557 19.2869 50.7614 20.0142C50.7557 21.0824 50.483 22.0085 49.9432 22.7926C49.4091 23.571 48.6364 24.1761 47.625 24.608C46.6193 25.0341 45.4063 25.2472 43.9858 25.2472C42.5767 25.2472 41.3494 25.0312 40.304 24.5994C39.2642 24.1676 38.4517 23.5284 37.8665 22.6818C37.2869 21.8295 36.983 20.7756 36.9545 19.5199H40.5256C40.5653 20.1051 40.733 20.5937 41.0284 20.9858C41.3295 21.3722 41.7301 21.6648 42.2301 21.8636C42.7358 22.0568 43.3068 22.1534 43.9432 22.1534C44.5682 22.1534 45.1108 22.0625 45.571 21.8807C46.0369 21.6989 46.3977 21.446 46.6534 21.1222C46.9091 20.7983 47.0369 20.4261 47.0369 20.0057C47.0369 19.6136 46.9205 19.2841 46.6875 19.017C46.4602 18.75 46.125 18.5227 45.6818 18.3352C45.2443 18.1477 44.7074 17.9773 44.071 17.8239L42.1705 17.3466C40.6989 16.9886 39.5369 16.429 38.6847 15.6676C37.8324 14.9062 37.4091 13.8807 37.4148 12.5909C37.4091 11.5341 37.6903 10.6108 38.2585 9.82102C38.8324 9.03125 39.6193 8.41477 40.6193 7.97159C41.6193 7.52841 42.7557 7.30682 44.0284 7.30682C45.3239 7.30682 46.4545 7.52841 47.4205 7.97159C48.392 8.41477 49.1477 9.03125 49.6875 9.82102C50.2273 10.6108 50.5057 11.5256 50.5227 12.5653H46.9858ZM55.7578 25L52.1953 11.9091H55.8686L57.897 20.7045H58.0163L60.13 11.9091H63.7351L65.8828 20.6534H65.9936L67.9879 11.9091H71.6527L68.0987 25H64.255L62.005 16.767H61.843L59.593 25H55.7578ZM73.5895 25V11.9091H77.2202V25H73.5895ZM75.4134 10.2216C74.8736 10.2216 74.4105 10.0426 74.0241 9.68466C73.6435 9.32102 73.4531 8.88636 73.4531 8.38068C73.4531 7.88068 73.6435 7.4517 74.0241 7.09375C74.4105 6.73011 74.8736 6.54829 75.4134 6.54829C75.9531 6.54829 76.4134 6.73011 76.794 7.09375C77.1804 7.4517 77.3736 7.88068 77.3736 8.38068C77.3736 8.88636 77.1804 9.32102 76.794 9.68466C76.4134 10.0426 75.9531 10.2216 75.4134 10.2216ZM87.1683 11.9091V14.6364H79.0888V11.9091H87.1683ZM80.9382 25V10.9631C80.9382 10.0142 81.1229 9.22727 81.4922 8.60227C81.8672 7.97727 82.3786 7.50852 83.0263 7.19602C83.674 6.88352 84.4098 6.72727 85.2337 6.72727C85.7905 6.72727 86.299 6.76989 86.7592 6.85511C87.2251 6.94034 87.5717 7.01705 87.799 7.08523L87.1513 9.8125C87.0092 9.76705 86.8331 9.72443 86.6229 9.68466C86.4183 9.64489 86.2081 9.625 85.9922 9.625C85.4581 9.625 85.0859 9.75 84.8757 10C84.6655 10.2443 84.5604 10.5881 84.5604 11.0312V25H80.9382ZM96.3494 11.9091V14.6364H88.4659V11.9091H96.3494ZM90.2557 8.77273H93.8864V20.9773C93.8864 21.3125 93.9375 21.5739 94.0398 21.7614C94.142 21.9432 94.2841 22.071 94.4659 22.1449C94.6534 22.2187 94.8693 22.2557 95.1136 22.2557C95.2841 22.2557 95.4545 22.2415 95.625 22.2131C95.7955 22.179 95.9261 22.1534 96.017 22.1364L96.5881 24.8381C96.4063 24.8949 96.1506 24.9602 95.821 25.0341C95.4915 25.1136 95.0909 25.1619 94.6193 25.179C93.7443 25.2131 92.9773 25.0966 92.3182 24.8295C91.6648 24.5625 91.1563 24.1477 90.7926 23.5852C90.429 23.0227 90.25 22.3125 90.2557 21.4545V8.77273ZM104.337 7.54545H108.888L113.695 19.2727H113.9L118.707 7.54545H123.258V25H119.678V13.6392H119.533L115.016 24.9148H112.579L108.062 13.5966H107.917V25H104.337V7.54545ZM132.196 25.2557C130.849 25.2557 129.69 24.983 128.719 24.4375C127.753 23.8864 127.009 23.108 126.486 22.1023C125.963 21.0909 125.702 19.8949 125.702 18.5142C125.702 17.1676 125.963 15.9858 126.486 14.9688C127.009 13.9517 127.744 13.1591 128.693 12.5909C129.648 12.0227 130.767 11.7386 132.051 11.7386C132.915 11.7386 133.719 11.8778 134.463 12.1562C135.213 12.429 135.866 12.8409 136.423 13.392C136.986 13.9432 137.423 14.6364 137.736 15.4716C138.048 16.3011 138.205 17.2727 138.205 18.3864V19.3835H127.151V17.1335H134.787C134.787 16.6108 134.673 16.1477 134.446 15.7443C134.219 15.3409 133.903 15.0256 133.5 14.7983C133.102 14.5653 132.639 14.4489 132.111 14.4489C131.56 14.4489 131.071 14.5767 130.645 14.8324C130.224 15.0824 129.895 15.4205 129.656 15.8466C129.418 16.267 129.295 16.7358 129.29 17.2528V19.392C129.29 20.0398 129.409 20.5994 129.648 21.071C129.892 21.5426 130.236 21.9062 130.679 22.1619C131.122 22.4176 131.648 22.5455 132.256 22.5455C132.659 22.5455 133.028 22.4886 133.364 22.375C133.699 22.2614 133.986 22.0909 134.224 21.8636C134.463 21.6364 134.645 21.358 134.77 21.0284L138.128 21.25C137.957 22.0568 137.608 22.7614 137.08 23.3636C136.557 23.9602 135.881 24.4261 135.051 24.7614C134.227 25.0909 133.276 25.2557 132.196 25.2557ZM146.54 25.2557C145.193 25.2557 144.034 24.983 143.062 24.4375C142.097 23.8864 141.352 23.108 140.83 22.1023C140.307 21.0909 140.045 19.8949 140.045 18.5142C140.045 17.1676 140.307 15.9858 140.83 14.9688C141.352 13.9517 142.088 13.1591 143.037 12.5909C143.991 12.0227 145.111 11.7386 146.395 11.7386C147.259 11.7386 148.063 11.8778 148.807 12.1562C149.557 12.429 150.21 12.8409 150.767 13.392C151.33 13.9432 151.767 14.6364 152.08 15.4716C152.392 16.3011 152.548 17.2727 152.548 18.3864V19.3835H141.494V17.1335H149.131C149.131 16.6108 149.017 16.1477 148.79 15.7443C148.563 15.3409 148.247 15.0256 147.844 14.7983C147.446 14.5653 146.983 14.4489 146.455 14.4489C145.903 14.4489 145.415 14.5767 144.989 14.8324C144.568 15.0824 144.239 15.4205 144 15.8466C143.761 16.267 143.639 16.7358 143.634 17.2528V19.392C143.634 20.0398 143.753 20.5994 143.991 21.071C144.236 21.5426 144.58 21.9062 145.023 22.1619C145.466 22.4176 145.991 22.5455 146.599 22.5455C147.003 22.5455 147.372 22.4886 147.707 22.375C148.043 22.2614 148.33 22.0909 148.568 21.8636C148.807 21.6364 148.989 21.358 149.114 21.0284L152.472 21.25C152.301 22.0568 151.952 22.7614 151.423 23.3636C150.901 23.9602 150.224 24.4261 149.395 24.7614C148.571 25.0909 147.619 25.2557 146.54 25.2557ZM161.881 11.9091V14.6364H153.997V11.9091H161.881ZM155.787 8.77273H159.418V20.9773C159.418 21.3125 159.469 21.5739 159.571 21.7614C159.673 21.9432 159.815 22.071 159.997 22.1449C160.185 22.2187 160.401 22.2557 160.645 22.2557C160.815 22.2557 160.986 22.2415 161.156 22.2131C161.327 22.179 161.457 22.1534 161.548 22.1364L162.119 24.8381C161.938 24.8949 161.682 24.9602 161.352 25.0341C161.023 25.1136 160.622 25.1619 160.151 25.179C159.276 25.2131 158.509 25.0966 157.849 24.8295C157.196 24.5625 156.688 24.1477 156.324 23.5852C155.96 23.0227 155.781 22.3125 155.787 21.4545V8.77273Z" fill="white"/>
<defs>
<filter id="filter0_dddddd_301_15" x="2.44167" y="9.01688" width="21.4214" height="17.9165" filterUnits="userSpaceOnUse" color-interpolation-filters="sRGB">
<feFlood flood-opacity="0" result="BackgroundImageFix"/>
<feColorMatrix in="SourceAlpha" type="matrix" values="0 0 0 0 0 0 0 0 0 0 0 0 0 0 0 0 0 0 127 0" result="hardAlpha"/>
<feOffset dy="0.0972508"/>
<feGaussianBlur stdDeviation="0.0358244"/>
<feColorMatrix type="matrix" values="0 0 0 0 0.0509804 0 0 0 0 0.121569 0 0 0 0 0.396078 0 0 0 0.189957 0"/>
<feBlend mode="multiply" in2="BackgroundImageFix" result="effect1_dropShadow_301_15"/>
<feColorMatrix in="SourceAlpha" type="matrix" values="0 0 0 0 0 0 0 0 0 0 0 0 0 0 0 0 0 0 127 0" result="hardAlpha"/>
<feOffset dy="0.190804"/>
<feGaussianBlur stdDeviation="0.0796761"/>
<feColorMatrix type="matrix" values="0 0 0 0 0.0509804 0 0 0 0 0.121569 0 0 0 0 0.396078 0 0 0 0.368551 0"/>
<feBlend mode="multiply" in2="effect1_dropShadow_301_15" result="effect2_dropShadow_301_15"/>
<feColorMatrix in="SourceAlpha" type="matrix" values="0 0 0 0 0 0 0 0 0 0 0 0 0 0 0 0 0 0 127 0" result="hardAlpha"/>
<feOffset dy="0.293437"/>
<feGaussianBlur stdDeviation="0.136456"/>
<feColorMatrix type="matrix" values="0 0 0 0 0.0509804 0 0 0 0 0.121569 0 0 0 0 0.396078 0 0 0 0.3 0"/>
<feBlend mode="multiply" in2="effect2_dropShadow_301_15" result="effect3_dropShadow_301_15"/>
<feColorMatrix in="SourceAlpha" type="matrix" values="0 0 0 0 0 0 0 0 0 0 0 0 0 0 0 0 0 0 127 0" result="hardAlpha"/>
<feOffset dy="0.430565"/>
<feGaussianBlur stdDeviation="0.43335"/>
<feColorMatrix type="matrix" values="0 0 0 0 0.0509804 0 0 0 0 0.121569 0 0 0 0 0.396078 0 0 0 0.3 0"/>
<feBlend mode="multiply" in2="effect3_dropShadow_301_15" result="effect4_dropShadow_301_15"/>
<feColorMatrix in="SourceAlpha" type="matrix" values="0 0 0 0 0 0 0 0 0 0 0 0 0 0 0 0 0 0 127 0" result="hardAlpha"/>
<feOffset dy="0.669976"/>
<feGaussianBlur stdDeviation="0.80566"/>
<feColorMatrix type="matrix" values="0 0 0 0 0.0509804 0 0 0 0 0.121569 0 0 0 0 0.396078 0 0 0 0.29 0"/>
<feBlend mode="overlay" in2="effect4_dropShadow_301_15" result="effect5_dropShadow_301_15"/>
<feColorMatrix in="SourceAlpha" type="matrix" values="0 0 0 0 0 0 0 0 0 0 0 0 0 0 0 0 0 0 127 0" result="hardAlpha"/>
<feOffset dy="1.77199"/>
<feGaussianBlur stdDeviation="1.41759"/>
<feColorMatrix type="matrix" values="0 0 0 0 0.0509804 0 0 0 0 0.121569 0 0 0 0 0.396078 0 0 0 0.45 0"/>
<feBlend mode="multiply" in2="effect5_dropShadow_301_15" result="effect6_dropShadow_301_15"/>
<feBlend mode="normal" in="SourceGraphic" in2="effect6_dropShadow_301_15" result="shape"/>
</filter>
<filter id="filter1_dddddd_301_15" x="19.1375" y="9.13407" width="10.9077" height="17.7114" filterUnits="userSpaceOnUse" color-interpolation-filters="sRGB">
<feFlood flood-opacity="0" result="BackgroundImageFix"/>
<feColorMatrix in="SourceAlpha" type="matrix" values="0 0 0 0 0 0 0 0 0 0 0 0 0 0 0 0 0 0 127 0" result="hardAlpha"/>
<feOffset dy="0.0972508"/>
<feGaussianBlur stdDeviation="0.0358244"/>
<feColorMatrix type="matrix" values="0 0 0 0 0.0509804 0 0 0 0 0.121569 0 0 0 0 0.396078 0 0 0 0.189957 0"/>
<feBlend mode="multiply" in2="BackgroundImageFix" result="effect1_dropShadow_301_15"/>
<feColorMatrix in="SourceAlpha" type="matrix" values="0 0 0 0 0 0 0 0 0 0 0 0 0 0 0 0 0 0 127 0" result="hardAlpha"/>
<feOffset dy="0.190804"/>
<feGaussianBlur stdDeviation="0.0796761"/>
<feColorMatrix type="matrix" values="0 0 0 0 0.0509804 0 0 0 0 0.121569 0 0 0 0 0.396078 0 0 0 0.368551 0"/>
<feBlend mode="multiply" in2="effect1_dropShadow_301_15" result="effect2_dropShadow_301_15"/>
<feColorMatrix in="SourceAlpha" type="matrix" values="0 0 0 0 0 0 0 0 0 0 0 0 0 0 0 0 0 0 127 0" result="hardAlpha"/>
<feOffset dy="0.293437"/>
<feGaussianBlur stdDeviation="0.136456"/>
<feColorMatrix type="matrix" values="0 0 0 0 0.0509804 0 0 0 0 0.121569 0 0 0 0 0.396078 0 0 0 0.3 0"/>
<feBlend mode="multiply" in2="effect2_dropShadow_301_15" result="effect3_dropShadow_301_15"/>
<feColorMatrix in="SourceAlpha" type="matrix" values="0 0 0 0 0 0 0 0 0 0 0 0 0 0 0 0 0 0 127 0" result="hardAlpha"/>
<feOffset dy="0.430565"/>
<feGaussianBlur stdDeviation="0.43335"/>
<feColorMatrix type="matrix" values="0 0 0 0 0.0509804 0 0 0 0 0.121569 0 0 0 0 0.396078 0 0 0 0.3 0"/>
<feBlend mode="multiply" in2="effect3_dropShadow_301_15" result="effect4_dropShadow_301_15"/>
<feColorMatrix in="SourceAlpha" type="matrix" values="0 0 0 0 0 0 0 0 0 0 0 0 0 0 0 0 0 0 127 0" result="hardAlpha"/>
<feOffset dy="0.669976"/>
<feGaussianBlur stdDeviation="0.80566"/>
<feColorMatrix type="matrix" values="0 0 0 0 0.0509804 0 0 0 0 0.121569 0 0 0 0 0.396078 0 0 0 0.29 0"/>
<feBlend mode="overlay" in2="effect4_dropShadow_301_15" result="effect5_dropShadow_301_15"/>
<feColorMatrix in="SourceAlpha" type="matrix" values="0 0 0 0 0 0 0 0 0 0 0 0 0 0 0 0 0 0 127 0" result="hardAlpha"/>
<feOffset dy="1.77199"/>
<feGaussianBlur stdDeviation="1.41759"/>
<feColorMatrix type="matrix" values="0 0 0 0 0.0509804 0 0 0 0 0.121569 0 0 0 0 0.396078 0 0 0 0.45 0"/>
<feBlend mode="multiply" in2="effect5_dropShadow_301_15" result="effect6_dropShadow_301_15"/>
<feBlend mode="normal" in="SourceGraphic" in2="effect6_dropShadow_301_15" result="shape"/>
</filter>
<linearGradient id="paint0_linear_301_15" x1="16.2251" y1="-1.78767e-06" x2="16.2251" y2="32.4806" gradientUnits="userSpaceOnUse">
<stop stop-color="#FF6768"/>
<stop offset="1" stop-color="#FF6768"/>
</linearGradient>
<linearGradient id="paint1_linear_301_15" x1="13.1524" y1="10.0801" x2="13.1524" y2="22.3265" gradientUnits="userSpaceOnUse">
<stop stop-color="white"/>
<stop offset="1" stop-color="#C5D4F7"/>
</linearGradient>
<linearGradient id="paint2_linear_301_15" x1="13.1525" y1="10.0796" x2="13.1525" y2="22.326" gradientUnits="userSpaceOnUse">
<stop stop-color="white"/>
<stop offset="1" stop-color="#637ACA"/>
</linearGradient>
<linearGradient id="paint3_linear_301_15" x1="24.5913" y1="10.1983" x2="24.5913" y2="22.2384" gradientUnits="userSpaceOnUse">
<stop stop-color="white"/>
<stop offset="1" stop-color="#C5D4F7"/>
</linearGradient>
<linearGradient id="paint4_linear_301_15" x1="24.5913" y1="10.1975" x2="24.5913" y2="22.2376" gradientUnits="userSpaceOnUse">
<stop stop-color="white"/>
<stop offset="1" stop-color="#637ACA"/>
</linearGradient>
</defs>
</svg>
