<svg width="200" height="75" viewBox="0 0 200 75" fill="none" xmlns="http://www.w3.org/2000/svg">
<path d="M40.5279 21.0084C41.1295 21.0126 41.7309 21.0168 42.3049 21.0168H48.1454C48.7194 21.0168 49.3207 21.0126 49.9224 21.0084C51.5422 20.9971 53.1643 20.9858 54.2623 21.0561C58.2591 21.3121 61.0155 23.7338 61.3699 27.8487C61.454 29.3274 61.4519 31.1087 61.4496 33.2094C61.4491 33.57 61.4487 33.9405 61.4487 34.32V40.1605C61.4487 40.54 61.4491 40.91 61.4496 41.2705C61.4519 43.3715 61.454 45.153 61.3699 46.6318C61.0155 50.7468 58.2591 53.1685 54.2623 53.4244C53.1643 53.4948 51.5422 53.4835 49.9224 53.4722C49.3207 53.468 48.7194 53.4638 48.1454 53.4638H42.3049C41.7309 53.4638 41.1295 53.468 40.5279 53.4722C38.9081 53.4835 37.286 53.4948 36.188 53.4244C32.1912 53.1685 29.4348 50.7468 29.0804 46.6318C28.9963 45.1531 28.9984 43.3718 29.0008 41.2711C29.0012 40.9106 29.0016 40.54 29.0016 40.1605V34.32C29.0016 33.9405 29.0012 33.5706 29.0008 33.21C28.9984 31.1093 28.9963 29.3274 29.0804 27.8487C29.4348 23.7338 32.1912 21.3121 36.188 21.0561C37.286 20.9858 38.9081 20.9971 40.5279 21.0084Z" fill="url(#paint0_linear_301_2)"/>
<g filter="url(#filter0_dddddd_301_2)">
<path d="M34.2769 32.5764C34.2769 31.75 34.9468 31.0801 35.7732 31.0801H46.2477C48.3354 31.0801 50.0279 32.7725 50.0279 34.8603V41.8302C50.0279 42.6566 49.358 43.3265 48.5316 43.3265H38.0571C35.9694 43.3265 34.2769 41.634 34.2769 39.5463V32.5764Z" fill="url(#paint1_linear_301_2)"/>
<path d="M35.7733 31.2568H46.2477C48.2376 31.2568 49.8507 32.87 49.8507 34.8599V41.8297C49.8507 42.5583 49.2602 43.1488 48.5316 43.1488H38.0572C36.0672 43.1488 34.4541 41.5357 34.4541 39.5458V32.5759C34.4541 31.8474 35.0447 31.2568 35.7733 31.2568Z" stroke="url(#paint2_linear_301_2)" stroke-width="0.354398"/>
</g>
<g filter="url(#filter1_dddddd_301_2)">
<path d="M50.9727 35.4159C50.9727 34.9065 51.1918 34.4218 51.5742 34.0854L54.5752 31.4454C55.2112 30.886 56.2098 31.3376 56.2098 32.1846V42.252C56.2098 43.0911 55.2275 43.5455 54.5881 43.0023L51.8333 40.6618C51.2874 40.198 50.9727 39.5177 50.9727 38.8013V35.4159Z" fill="url(#paint3_linear_301_2)"/>
<path d="M51.6913 34.2177L54.6923 31.5778C55.2138 31.1189 56.0327 31.4892 56.0327 32.1838V42.2513C56.0327 42.9393 55.2271 43.312 54.7028 42.8664L51.9481 40.5259C51.4417 40.0958 51.1499 39.4649 51.1499 38.8005V35.4151C51.1499 34.9567 51.3472 34.5204 51.6913 34.2177Z" stroke="url(#paint4_linear_301_2)" stroke-width="0.354398"/>
</g>
<path d="M75.9858 33.5653C75.9176 32.8778 75.625 32.3437 75.108 31.9631C74.5909 31.5824 73.8892 31.392 73.0028 31.392C72.4006 31.392 71.892 31.4773 71.4773 31.6477C71.0625 31.8125 70.7443 32.0426 70.5227 32.3381C70.3068 32.6335 70.1989 32.9688 70.1989 33.3438C70.1875 33.6562 70.2528 33.929 70.3949 34.1619C70.5426 34.3949 70.7443 34.5966 71 34.767C71.2557 34.9318 71.5511 35.0767 71.8864 35.2017C72.2216 35.321 72.5795 35.4233 72.9602 35.5085L74.5284 35.8835C75.2898 36.054 75.9886 36.2812 76.625 36.5653C77.2614 36.8494 77.8125 37.1989 78.2784 37.6136C78.7443 38.0284 79.1051 38.517 79.3608 39.0795C79.6222 39.642 79.7557 40.2869 79.7614 41.0142C79.7557 42.0824 79.483 43.0085 78.9432 43.7926C78.4091 44.571 77.6364 45.1761 76.625 45.608C75.6193 46.0341 74.4063 46.2472 72.9858 46.2472C71.5767 46.2472 70.3494 46.0312 69.304 45.5994C68.2642 45.1676 67.4517 44.5284 66.8665 43.6818C66.2869 42.8295 65.983 41.7756 65.9545 40.5199H69.5256C69.5653 41.1051 69.733 41.5937 70.0284 41.9858C70.3295 42.3722 70.7301 42.6648 71.2301 42.8636C71.7358 43.0568 72.3068 43.1534 72.9432 43.1534C73.5682 43.1534 74.1108 43.0625 74.571 42.8807C75.0369 42.6989 75.3977 42.446 75.6534 42.1222C75.9091 41.7983 76.0369 41.4261 76.0369 41.0057C76.0369 40.6136 75.9205 40.2841 75.6875 40.017C75.4602 39.75 75.125 39.5227 74.6818 39.3352C74.2443 39.1477 73.7074 38.9773 73.071 38.8239L71.1705 38.3466C69.6989 37.9886 68.5369 37.429 67.6847 36.6676C66.8324 35.9062 66.4091 34.8807 66.4148 33.5909C66.4091 32.5341 66.6903 31.6108 67.2585 30.821C67.8324 30.0312 68.6193 29.4148 69.6193 28.9716C70.6193 28.5284 71.7557 28.3068 73.0284 28.3068C74.3239 28.3068 75.4545 28.5284 76.4205 28.9716C77.392 29.4148 78.1477 30.0312 78.6875 30.821C79.2273 31.6108 79.5057 32.5256 79.5227 33.5653H75.9858ZM84.7578 46L81.1953 32.9091H84.8686L86.897 41.7045H87.0163L89.13 32.9091H92.7351L94.8828 41.6534H94.9936L96.9879 32.9091H100.653L97.0987 46H93.255L91.005 37.767H90.843L88.593 46H84.7578ZM102.589 46V32.9091H106.22V46H102.589ZM104.413 31.2216C103.874 31.2216 103.411 31.0426 103.024 30.6847C102.643 30.321 102.453 29.8864 102.453 29.3807C102.453 28.8807 102.643 28.4517 103.024 28.0938C103.411 27.7301 103.874 27.5483 104.413 27.5483C104.953 27.5483 105.413 27.7301 105.794 28.0938C106.18 28.4517 106.374 28.8807 106.374 29.3807C106.374 29.8864 106.18 30.321 105.794 30.6847C105.413 31.0426 104.953 31.2216 104.413 31.2216ZM116.168 32.9091V35.6364H108.089V32.9091H116.168ZM109.938 46V31.9631C109.938 31.0142 110.123 30.2273 110.492 29.6023C110.867 28.9773 111.379 28.5085 112.026 28.196C112.674 27.8835 113.41 27.7273 114.234 27.7273C114.79 27.7273 115.299 27.7699 115.759 27.8551C116.225 27.9403 116.572 28.017 116.799 28.0852L116.151 30.8125C116.009 30.767 115.833 30.7244 115.623 30.6847C115.418 30.6449 115.208 30.625 114.992 30.625C114.458 30.625 114.086 30.75 113.876 31C113.665 31.2443 113.56 31.5881 113.56 32.0312V46H109.938ZM125.349 32.9091V35.6364H117.466V32.9091H125.349ZM119.256 29.7727H122.886V41.9773C122.886 42.3125 122.938 42.5739 123.04 42.7614C123.142 42.9432 123.284 43.071 123.466 43.1449C123.653 43.2187 123.869 43.2557 124.114 43.2557C124.284 43.2557 124.455 43.2415 124.625 43.2131C124.795 43.179 124.926 43.1534 125.017 43.1364L125.588 45.8381C125.406 45.8949 125.151 45.9602 124.821 46.0341C124.491 46.1136 124.091 46.1619 123.619 46.179C122.744 46.2131 121.977 46.0966 121.318 45.8295C120.665 45.5625 120.156 45.1477 119.793 44.5852C119.429 44.0227 119.25 43.3125 119.256 42.4545V29.7727ZM133.337 28.5455H137.888L142.695 40.2727H142.9L147.707 28.5455H152.258V46H148.678V34.6392H148.533L144.016 45.9148H141.579L137.062 34.5966H136.917V46H133.337V28.5455ZM161.196 46.2557C159.849 46.2557 158.69 45.983 157.719 45.4375C156.753 44.8864 156.009 44.108 155.486 43.1023C154.963 42.0909 154.702 40.8949 154.702 39.5142C154.702 38.1676 154.963 36.9858 155.486 35.9688C156.009 34.9517 156.744 34.1591 157.693 33.5909C158.648 33.0227 159.767 32.7386 161.051 32.7386C161.915 32.7386 162.719 32.8778 163.463 33.1562C164.213 33.429 164.866 33.8409 165.423 34.392C165.986 34.9432 166.423 35.6364 166.736 36.4716C167.048 37.3011 167.205 38.2727 167.205 39.3864V40.3835H156.151V38.1335H163.787C163.787 37.6108 163.673 37.1477 163.446 36.7443C163.219 36.3409 162.903 36.0256 162.5 35.7983C162.102 35.5653 161.639 35.4489 161.111 35.4489C160.56 35.4489 160.071 35.5767 159.645 35.8324C159.224 36.0824 158.895 36.4205 158.656 36.8466C158.418 37.267 158.295 37.7358 158.29 38.2528V40.392C158.29 41.0398 158.409 41.5994 158.648 42.071C158.892 42.5426 159.236 42.9062 159.679 43.1619C160.122 43.4176 160.648 43.5455 161.256 43.5455C161.659 43.5455 162.028 43.4886 162.364 43.375C162.699 43.2614 162.986 43.0909 163.224 42.8636C163.463 42.6364 163.645 42.358 163.77 42.0284L167.128 42.25C166.957 43.0568 166.608 43.7614 166.08 44.3636C165.557 44.9602 164.881 45.4261 164.051 45.7614C163.227 46.0909 162.276 46.2557 161.196 46.2557ZM175.54 46.2557C174.193 46.2557 173.034 45.983 172.062 45.4375C171.097 44.8864 170.352 44.108 169.83 43.1023C169.307 42.0909 169.045 40.8949 169.045 39.5142C169.045 38.1676 169.307 36.9858 169.83 35.9688C170.352 34.9517 171.088 34.1591 172.037 33.5909C172.991 33.0227 174.111 32.7386 175.395 32.7386C176.259 32.7386 177.063 32.8778 177.807 33.1562C178.557 33.429 179.21 33.8409 179.767 34.392C180.33 34.9432 180.767 35.6364 181.08 36.4716C181.392 37.3011 181.548 38.2727 181.548 39.3864V40.3835H170.494V38.1335H178.131C178.131 37.6108 178.017 37.1477 177.79 36.7443C177.563 36.3409 177.247 36.0256 176.844 35.7983C176.446 35.5653 175.983 35.4489 175.455 35.4489C174.903 35.4489 174.415 35.5767 173.989 35.8324C173.568 36.0824 173.239 36.4205 173 36.8466C172.761 37.267 172.639 37.7358 172.634 38.2528V40.392C172.634 41.0398 172.753 41.5994 172.991 42.071C173.236 42.5426 173.58 42.9062 174.023 43.1619C174.466 43.4176 174.991 43.5455 175.599 43.5455C176.003 43.5455 176.372 43.4886 176.707 43.375C177.043 43.2614 177.33 43.0909 177.568 42.8636C177.807 42.6364 177.989 42.358 178.114 42.0284L181.472 42.25C181.301 43.0568 180.952 43.7614 180.423 44.3636C179.901 44.9602 179.224 45.4261 178.395 45.7614C177.571 46.0909 176.619 46.2557 175.54 46.2557ZM190.881 32.9091V35.6364H182.997V32.9091H190.881ZM184.787 29.7727H188.418V41.9773C188.418 42.3125 188.469 42.5739 188.571 42.7614C188.673 42.9432 188.815 43.071 188.997 43.1449C189.185 43.2187 189.401 43.2557 189.645 43.2557C189.815 43.2557 189.986 43.2415 190.156 43.2131C190.327 43.179 190.457 43.1534 190.548 43.1364L191.119 45.8381C190.938 45.8949 190.682 45.9602 190.352 46.0341C190.023 46.1136 189.622 46.1619 189.151 46.179C188.276 46.2131 187.509 46.0966 186.849 45.8295C186.196 45.5625 185.688 45.1477 185.324 44.5852C184.96 44.0227 184.781 43.3125 184.787 42.4545V29.7727Z" fill="white"/>
<defs>
<filter id="filter0_dddddd_301_2" x="31.4417" y="30.0169" width="21.4214" height="17.9165" filterUnits="userSpaceOnUse" color-interpolation-filters="sRGB">
<feFlood flood-opacity="0" result="BackgroundImageFix"/>
<feColorMatrix in="SourceAlpha" type="matrix" values="0 0 0 0 0 0 0 0 0 0 0 0 0 0 0 0 0 0 127 0" result="hardAlpha"/>
<feOffset dy="0.0972508"/>
<feGaussianBlur stdDeviation="0.0358244"/>
<feColorMatrix type="matrix" values="0 0 0 0 0.0509804 0 0 0 0 0.121569 0 0 0 0 0.396078 0 0 0 0.189957 0"/>
<feBlend mode="multiply" in2="BackgroundImageFix" result="effect1_dropShadow_301_2"/>
<feColorMatrix in="SourceAlpha" type="matrix" values="0 0 0 0 0 0 0 0 0 0 0 0 0 0 0 0 0 0 127 0" result="hardAlpha"/>
<feOffset dy="0.190804"/>
<feGaussianBlur stdDeviation="0.0796761"/>
<feColorMatrix type="matrix" values="0 0 0 0 0.0509804 0 0 0 0 0.121569 0 0 0 0 0.396078 0 0 0 0.368551 0"/>
<feBlend mode="multiply" in2="effect1_dropShadow_301_2" result="effect2_dropShadow_301_2"/>
<feColorMatrix in="SourceAlpha" type="matrix" values="0 0 0 0 0 0 0 0 0 0 0 0 0 0 0 0 0 0 127 0" result="hardAlpha"/>
<feOffset dy="0.293437"/>
<feGaussianBlur stdDeviation="0.136456"/>
<feColorMatrix type="matrix" values="0 0 0 0 0.0509804 0 0 0 0 0.121569 0 0 0 0 0.396078 0 0 0 0.3 0"/>
<feBlend mode="multiply" in2="effect2_dropShadow_301_2" result="effect3_dropShadow_301_2"/>
<feColorMatrix in="SourceAlpha" type="matrix" values="0 0 0 0 0 0 0 0 0 0 0 0 0 0 0 0 0 0 127 0" result="hardAlpha"/>
<feOffset dy="0.430565"/>
<feGaussianBlur stdDeviation="0.43335"/>
<feColorMatrix type="matrix" values="0 0 0 0 0.0509804 0 0 0 0 0.121569 0 0 0 0 0.396078 0 0 0 0.3 0"/>
<feBlend mode="multiply" in2="effect3_dropShadow_301_2" result="effect4_dropShadow_301_2"/>
<feColorMatrix in="SourceAlpha" type="matrix" values="0 0 0 0 0 0 0 0 0 0 0 0 0 0 0 0 0 0 127 0" result="hardAlpha"/>
<feOffset dy="0.669976"/>
<feGaussianBlur stdDeviation="0.80566"/>
<feColorMatrix type="matrix" values="0 0 0 0 0.0509804 0 0 0 0 0.121569 0 0 0 0 0.396078 0 0 0 0.29 0"/>
<feBlend mode="overlay" in2="effect4_dropShadow_301_2" result="effect5_dropShadow_301_2"/>
<feColorMatrix in="SourceAlpha" type="matrix" values="0 0 0 0 0 0 0 0 0 0 0 0 0 0 0 0 0 0 127 0" result="hardAlpha"/>
<feOffset dy="1.77199"/>
<feGaussianBlur stdDeviation="1.41759"/>
<feColorMatrix type="matrix" values="0 0 0 0 0.0509804 0 0 0 0 0.121569 0 0 0 0 0.396078 0 0 0 0.45 0"/>
<feBlend mode="multiply" in2="effect5_dropShadow_301_2" result="effect6_dropShadow_301_2"/>
<feBlend mode="normal" in="SourceGraphic" in2="effect6_dropShadow_301_2" result="shape"/>
</filter>
<filter id="filter1_dddddd_301_2" x="48.1375" y="30.1341" width="10.9077" height="17.7114" filterUnits="userSpaceOnUse" color-interpolation-filters="sRGB">
<feFlood flood-opacity="0" result="BackgroundImageFix"/>
<feColorMatrix in="SourceAlpha" type="matrix" values="0 0 0 0 0 0 0 0 0 0 0 0 0 0 0 0 0 0 127 0" result="hardAlpha"/>
<feOffset dy="0.0972508"/>
<feGaussianBlur stdDeviation="0.0358244"/>
<feColorMatrix type="matrix" values="0 0 0 0 0.0509804 0 0 0 0 0.121569 0 0 0 0 0.396078 0 0 0 0.189957 0"/>
<feBlend mode="multiply" in2="BackgroundImageFix" result="effect1_dropShadow_301_2"/>
<feColorMatrix in="SourceAlpha" type="matrix" values="0 0 0 0 0 0 0 0 0 0 0 0 0 0 0 0 0 0 127 0" result="hardAlpha"/>
<feOffset dy="0.190804"/>
<feGaussianBlur stdDeviation="0.0796761"/>
<feColorMatrix type="matrix" values="0 0 0 0 0.0509804 0 0 0 0 0.121569 0 0 0 0 0.396078 0 0 0 0.368551 0"/>
<feBlend mode="multiply" in2="effect1_dropShadow_301_2" result="effect2_dropShadow_301_2"/>
<feColorMatrix in="SourceAlpha" type="matrix" values="0 0 0 0 0 0 0 0 0 0 0 0 0 0 0 0 0 0 127 0" result="hardAlpha"/>
<feOffset dy="0.293437"/>
<feGaussianBlur stdDeviation="0.136456"/>
<feColorMatrix type="matrix" values="0 0 0 0 0.0509804 0 0 0 0 0.121569 0 0 0 0 0.396078 0 0 0 0.3 0"/>
<feBlend mode="multiply" in2="effect2_dropShadow_301_2" result="effect3_dropShadow_301_2"/>
<feColorMatrix in="SourceAlpha" type="matrix" values="0 0 0 0 0 0 0 0 0 0 0 0 0 0 0 0 0 0 127 0" result="hardAlpha"/>
<feOffset dy="0.430565"/>
<feGaussianBlur stdDeviation="0.43335"/>
<feColorMatrix type="matrix" values="0 0 0 0 0.0509804 0 0 0 0 0.121569 0 0 0 0 0.396078 0 0 0 0.3 0"/>
<feBlend mode="multiply" in2="effect3_dropShadow_301_2" result="effect4_dropShadow_301_2"/>
<feColorMatrix in="SourceAlpha" type="matrix" values="0 0 0 0 0 0 0 0 0 0 0 0 0 0 0 0 0 0 127 0" result="hardAlpha"/>
<feOffset dy="0.669976"/>
<feGaussianBlur stdDeviation="0.80566"/>
<feColorMatrix type="matrix" values="0 0 0 0 0.0509804 0 0 0 0 0.121569 0 0 0 0 0.396078 0 0 0 0.29 0"/>
<feBlend mode="overlay" in2="effect4_dropShadow_301_2" result="effect5_dropShadow_301_2"/>
<feColorMatrix in="SourceAlpha" type="matrix" values="0 0 0 0 0 0 0 0 0 0 0 0 0 0 0 0 0 0 127 0" result="hardAlpha"/>
<feOffset dy="1.77199"/>
<feGaussianBlur stdDeviation="1.41759"/>
<feColorMatrix type="matrix" values="0 0 0 0 0.0509804 0 0 0 0 0.121569 0 0 0 0 0.396078 0 0 0 0.45 0"/>
<feBlend mode="multiply" in2="effect5_dropShadow_301_2" result="effect6_dropShadow_301_2"/>
<feBlend mode="normal" in="SourceGraphic" in2="effect6_dropShadow_301_2" result="shape"/>
</filter>
<linearGradient id="paint0_linear_301_2" x1="45.2251" y1="21" x2="45.2251" y2="53.4806" gradientUnits="userSpaceOnUse">
<stop stop-color="#FF6768"/>
<stop offset="1" stop-color="#B53FED"/>
</linearGradient>
<linearGradient id="paint1_linear_301_2" x1="42.1524" y1="31.0801" x2="42.1524" y2="43.3265" gradientUnits="userSpaceOnUse">
<stop stop-color="white"/>
<stop offset="1" stop-color="#C5D4F7"/>
</linearGradient>
<linearGradient id="paint2_linear_301_2" x1="42.1525" y1="31.0796" x2="42.1525" y2="43.326" gradientUnits="userSpaceOnUse">
<stop stop-color="white"/>
<stop offset="1" stop-color="#637ACA"/>
</linearGradient>
<linearGradient id="paint3_linear_301_2" x1="53.5913" y1="31.1983" x2="53.5913" y2="43.2384" gradientUnits="userSpaceOnUse">
<stop stop-color="white"/>
<stop offset="1" stop-color="#C5D4F7"/>
</linearGradient>
<linearGradient id="paint4_linear_301_2" x1="53.5913" y1="31.1975" x2="53.5913" y2="43.2376" gradientUnits="userSpaceOnUse">
<stop stop-color="white"/>
<stop offset="1" stop-color="#637ACA"/>
</linearGradient>
</defs>
</svg>
